<?xml version="1.0" encoding="UTF-8"?>
<svg width="448px" height="72px" viewBox="0 0 448 72" version="1.1" xmlns="http://www.w3.org/2000/svg" xmlns:xlink="http://www.w3.org/1999/xlink">
    <!-- Generator: Sketch 51.3 (57544) - http://www.bohemiancoding.com/sketch -->
    <title>Group</title>
    <desc>Created with Sketch.</desc>
    <defs></defs>
    <g id="Page-1" stroke="none" stroke-width="1" fill="none" fill-rule="evenodd">
        <g id="Group" fill="#000000">
            <path d="M3.44,57.24 C2.2133272,57.24 1.6,56.840004 1.6,56.04 C1.6,55.7199984 1.7199988,55.4800008 1.96,55.32 C2.2000012,55.1599992 2.5066648,55.0266672 2.88,54.92 C3.2533352,54.8133328 3.5466656,54.7066672 3.76,54.6 C5.09334,54.066664 6.1999956,53.266672 7.08,52.2 C7.9600044,51.133328 8.5066656,49.8266744 8.72,48.28 C9.1466688,45.2399848 9.6666636,40.1067028 10.28,32.88 C10.8933364,25.6532972 11.2799992,21.1600088 11.44,19.4 L11.76,15.72 C11.8133336,15.3999984 11.84,14.4933408 11.84,13 C11.84,11.133324 11.1466736,9.8266704 9.76,9.08 C8.2666592,8.279996 6.8800064,7.7200016 5.6,7.4 C4.1599928,7.0266648 3.44,6.440004 3.44,5.64 C3.44,4.7866624 4.1333264,4.36 5.52,4.36 L11.44,4.52 C17.6800312,4.6800008 21.0133312,4.76 21.44,4.76 C21.8133352,4.76 22.199998,4.9199984 22.6,5.24 C23.000002,5.5600016 23.2533328,5.8799984 23.36,6.2 C24.2666712,8.7066792 25.0133304,10.6533264 25.6,12.04 L37.12,39.16 C37.2266672,39.3733344 37.346666,39.48 37.48,39.48 C37.613334,39.48 37.7066664,39.3733344 37.76,39.16 L48.24,13.96 C48.9866704,9.95998 49.5466648,7.4000056 49.92,6.28 C50.1333344,5.5866632 50.5866632,5.24 51.28,5.24 L54.88,5.24 C56.480008,5.1866664 57.8933272,5.1066672 59.12,5 C60.3466728,4.8933328 61.359996,4.8133336 62.16,4.76 C64.9333472,4.493332 67.0133264,4.36 68.4,4.36 C69.7866736,4.36 70.48,4.7866624 70.48,5.64 C70.48,6.0666688 70.3333348,6.3866656 70.04,6.6 C69.7466652,6.8133344 69.2800032,7.0266656 68.64,7.24 C68.2666648,7.3466672 67.9333348,7.4799992 67.64,7.64 C67.3466652,7.8000008 67.1200008,7.9066664 66.96,7.96 C65.2533248,8.760004 64.06667,9.626662 63.4,10.56 C62.73333,11.493338 62.4533328,12.9199904 62.56,14.84 C62.9866688,24.5467152 63.5733296,34.8932784 64.32,45.88 L64.56,49.16 C64.7733344,51.560012 66.6933152,53.2666616 70.32,54.28 C70.9066696,54.4933344 71.3466652,54.7066656 71.64,54.92 C71.9333348,55.1333344 72.08,55.4799976 72.08,55.96 C72.08,56.3333352 71.9333348,56.6266656 71.64,56.84 C71.3466652,57.0533344 70.9866688,57.16 70.56,57.16 L63.84,57 L57.6,56.84 C56.6399952,56.84 54.7200144,56.8933328 51.84,57 C49.706656,57.1600008 47.6266768,57.24 45.6,57.24 C45.1199976,57.24 44.7200016,57.1333344 44.4,56.92 C44.0799984,56.7066656 43.92,56.4133352 43.92,56.04 C43.92,55.1333288 44.5066608,54.546668 45.68,54.28 C47.7600104,53.7999976 49.1733296,53.22667 49.92,52.56 C50.6666704,51.89333 51.0133336,50.7866744 50.96,49.24 C50.7466656,45.7199824 50.5333344,40.0667056 50.32,32.28 C50.2666664,29.1866512 50.1333344,25.2666904 49.92,20.52 C49.92,20.253332 49.8400008,20.12 49.68,20.12 C49.5199992,20.12 49.3600008,20.3066648 49.2,20.68 L34.64,56.76 C34.373332,57.4533368 33.973336,57.8 33.44,57.8 C32.906664,57.8 32.4800016,57.5066696 32.16,56.92 C30.9866608,54.3066536 29.8800052,51.9200108 28.84,49.76 C27.7999948,47.5999892 26.880004,45.6400088 26.08,43.88 C21.3333096,33.9599504 17.893344,26.3600264 15.76,21.08 C15.5999992,20.7066648 15.386668,20.52 15.12,20.52 C14.6933312,20.52 14.4266672,20.9466624 14.32,21.8 C14.1599992,24.5733472 14.08,27.8799808 14.08,31.72 L14.16,41 C14.2133336,42.866676 14.24,45.4266504 14.24,48.68 C14.24,50.1733408 14.7199952,51.3466624 15.68,52.2 C16.6400048,53.0533376 18.186656,53.746664 20.32,54.28 C21.7600072,54.6533352 22.48,55.2133296 22.48,55.96 C22.48,56.3333352 22.280002,56.6266656 21.88,56.84 C21.479998,57.0533344 21.0400024,57.16 20.56,57.16 C18.959992,57.16 17.360008,57.1066672 15.76,57 L12.32,56.92 C10.7733256,56.92 9.0533428,56.9599996 7.16,57.04 C5.2666572,57.1200004 4.0266696,57.1866664 3.44,57.24 Z M81.96,58.12 C79.1333192,58.12 76.5600116,57.3466744 74.24,55.8 C71.9199884,54.2533256 70.09334,52.14668 68.76,49.48 C67.42666,46.81332 66.76,43.8533496 66.76,40.6 C66.76,37.2399832 67.559992,34.1466808 69.16,31.32 C70.760008,28.4933192 72.9333196,26.2533416 75.68,24.6 C78.4266804,22.9466584 81.4266504,22.12 84.68,22.12 C86.9200112,22.12 88.9866572,22.6266616 90.88,23.64 C92.7733428,24.6533384 94.2799944,26.0133248 95.4,27.72 C96.5200056,29.4266752 97.08,31.3199896 97.08,33.4 C97.08,34.466672 96.880002,35.2533308 96.48,35.76 C96.079998,36.2666692 95.4533376,36.52 94.6,36.52 L78.76,36.52 C78.0133296,36.52 77.4666684,36.7333312 77.12,37.16 C76.7733316,37.5866688 76.6,38.3066616 76.6,39.32 C76.6,42.253348 77.533324,44.7066568 79.4,46.68 C81.266676,48.6533432 83.666652,49.64 86.6,49.64 C88.0400072,49.64 89.3999936,49.3600028 90.68,48.8 C91.9600064,48.2399972 93.3466592,47.426672 94.84,46.36 C95.3200024,45.9866648 95.693332,45.8 95.96,45.8 C96.5466696,45.8 96.84,46.1466632 96.84,46.84 C96.84,47.3200024 96.6800016,48.0399952 96.36,49 C95.559996,51.400012 93.8666796,53.5199908 91.28,55.36 C88.6933204,57.2000092 85.5866848,58.12 81.96,58.12 Z M83,33 C84.2800064,33 85.2266636,32.9733336 85.84,32.92 C86.4533364,32.8666664 86.9999976,32.7600008 87.48,32.6 C87.6933344,32.5466664 87.8933324,32.2800024 88.08,31.8 C88.2666676,31.3199976 88.36,30.7866696 88.36,30.2 C88.36,28.8133264 87.9200044,27.6800044 87.04,26.8 C86.1599956,25.9199956 85.0266736,25.48 83.64,25.48 C82.039992,25.48 80.6000064,26.14666 79.32,27.48 C78.0399936,28.81334 77.4533328,30.2533256 77.56,31.8 C77.56,32.1733352 77.6666656,32.4666656 77.88,32.68 C78.0933344,32.8933344 78.3866648,33 78.76,33 L83,33 Z M96.12,57.24 C95.7466648,57.24 95.3866684,57.1200012 95.04,56.88 C94.6933316,56.6399988 94.52,56.3600016 94.52,56.04 C94.52,55.3466632 95.1333272,54.7866688 96.36,54.36 C97.3733384,54.0399984 98.1199976,53.6933352 98.6,53.32 C99.0800024,52.9466648 99.32,52.2800048 99.32,51.32 L99.32,32.76 C99.32,30.2533208 98.5466744,28.866668 97,28.6 C96.3599968,28.4933328 96.04,27.9866712 96.04,27.08 C96.04,26.279996 96.3333304,25.8000008 96.92,25.64 C103.160031,24.0933256 107.426655,22.6800064 109.72,21.4 C110.253336,21.0799984 110.599999,20.92 110.76,20.92 C111.293336,20.92 111.56,21.2399968 111.56,21.88 L111.4,23.64 C111.239999,25.5600096 111.16,26.5466664 111.16,26.6 C111.16,27.133336 111.213333,27.4533328 111.32,27.56 L111.48,27.56 C113.293342,25.7999912 115.146657,24.453338 117.04,23.52 C118.933343,22.586662 120.999989,22.12 123.24,22.12 C124.786674,22.12 126.279993,22.719994 127.72,23.92 C129.160007,25.120006 130.199997,26.6266576 130.84,28.44 L131.24,28.44 C134.546683,24.2266456 138.519977,22.12 143.16,22.12 C145.720013,22.12 147.866658,23.1466564 149.6,25.2 C151.333342,27.2533436 152.2,30.0666488 152.2,33.64 L152.2,51.4 C152.2,52.3600048 152.426664,53.0133316 152.88,53.36 C153.333336,53.7066684 154.093328,54.0399984 155.16,54.36 C156.226672,54.7333352 156.76,55.2933296 156.76,56.04 C156.76,56.3600016 156.613335,56.6399988 156.32,56.88 C156.026665,57.1200012 155.720002,57.24 155.4,57.24 C153.746658,57.24 152.146674,57.1600008 150.6,57 C148.67999,56.8933328 147.293338,56.84 146.44,56.84 C145.639996,56.84 144.386675,56.8933328 142.68,57 C141.399994,57.1600008 139.986674,57.24 138.44,57.24 C138.119998,57.24 137.826668,57.1200012 137.56,56.88 C137.293332,56.6399988 137.16,56.3600016 137.16,56.04 C137.16,55.2933296 137.666662,54.7333352 138.68,54.36 C139.373337,54.1466656 139.866665,53.8800016 140.16,53.56 C140.453335,53.2399984 140.6,52.7066704 140.6,51.96 L140.6,35.64 C140.6,33.7199904 140.240004,32.2000056 139.52,31.08 C138.799996,29.9599944 137.826673,29.3733336 136.6,29.32 C136.01333,29.32 135.34667,29.4799984 134.6,29.8 C133.85333,30.1200016 133.133337,30.5733304 132.44,31.16 C132.119998,31.4800016 131.893334,31.839998 131.76,32.24 C131.626666,32.640002 131.56,33.2133296 131.56,33.96 L131.56,51.4 C131.56,52.4133384 131.706665,53.0933316 132,53.44 C132.293335,53.7866684 132.866662,54.093332 133.72,54.36 C134.786672,54.7333352 135.32,55.2933296 135.32,56.04 C135.32,56.3600016 135.173335,56.6399988 134.88,56.88 C134.586665,57.1200012 134.280002,57.24 133.96,57.24 C132.359992,57.24 130.920006,57.1600008 129.64,57 C127.933325,56.8933328 126.653338,56.84 125.8,56.84 C124.999996,56.84 123.746675,56.8933328 122.04,57 C120.759994,57.1600008 119.346674,57.24 117.8,57.24 C117.479998,57.24 117.186668,57.1200012 116.92,56.88 C116.653332,56.6399988 116.52,56.3600016 116.52,56.04 C116.52,55.2933296 117.026662,54.7333352 118.04,54.36 C118.733337,54.1466656 119.226665,53.8800016 119.52,53.56 C119.813335,53.2399984 119.96,52.7066704 119.96,51.96 L119.96,35.64 C119.96,33.7199904 119.613337,32.2133388 118.92,31.12 C118.226663,30.0266612 117.266673,29.4533336 116.04,29.4 C114.70666,29.4 113.266674,29.9599944 111.72,31.08 C111.186664,31.4533352 110.92,32.30666 110.92,33.64 L110.92,51.4 C110.92,52.3600048 111.039999,53.039998 111.28,53.44 C111.520001,53.840002 112.039996,54.1466656 112.84,54.36 C113.853338,54.7333352 114.36,55.2933296 114.36,56.04 C114.36,56.3600016 114.226668,56.6399988 113.96,56.88 C113.693332,57.1200012 113.400002,57.24 113.08,57.24 C111.479992,57.24 110.040006,57.1600008 108.76,57 C107.159992,56.8933328 105.906671,56.84 105,56.84 C104.146662,56.84 102.76001,56.8933328 100.84,57 C99.3466592,57.1600008 97.7733416,57.24 96.12,57.24 Z M171,58.12 C167.799984,58.12 164.86668,57.4000072 162.2,55.96 C159.53332,54.5199928 157.440008,52.5066796 155.92,49.92 C154.399992,47.3333204 153.64,44.440016 153.64,41.24 C153.64,37.773316 154.493325,34.573348 156.2,31.64 C157.906675,28.706652 160.213319,26.373342 163.12,24.64 C166.026681,22.906658 169.239982,22.04 172.76,22.04 C176.01335,22.04 179.01332,22.8133256 181.76,24.36 C184.50668,25.9066744 186.679992,27.9733204 188.28,30.56 C189.880008,33.1466796 190.68,35.9333184 190.68,38.92 C190.68,42.4933512 189.933341,45.7333188 188.44,48.64 C186.946659,51.5466812 184.720015,53.8533248 181.76,55.56 C178.799985,57.2666752 175.213354,58.12 171,58.12 Z M173.52,54.36 C175.386676,54.36 176.799995,53.5866744 177.76,52.04 C178.933339,50.0666568 179.52,46.3333608 179.52,40.84 C179.52,36.4133112 178.880006,32.800014 177.6,30 C176.319994,27.199986 174.64001,25.8 172.56,25.8 C171.173326,25.8 170.026671,26.2533288 169.12,27.16 C168.213329,28.0666712 167.586668,29.4933236 167.24,31.44 C166.893332,33.3866764 166.72,35.9866504 166.72,39.24 C166.72,41.8000128 167.01333,44.2399884 167.6,46.56 C168.18667,48.8800116 168.999995,50.7599928 170.04,52.2 C171.080005,53.6400072 172.239994,54.36 173.52,54.36 Z M189.56,57.24 C189.133331,57.24 188.760002,57.1200012 188.44,56.88 C188.119998,56.6399988 187.96,56.3600016 187.96,56.04 C187.96,55.2933296 188.573327,54.7333352 189.8,54.36 C190.973339,53.9866648 191.759998,53.600002 192.16,53.2 C192.560002,52.799998 192.76,52.1733376 192.76,51.32 L192.76,32.68 C192.76,31.5599944 192.613335,30.6933364 192.32,30.08 C192.026665,29.4666636 191.453338,29.026668 190.6,28.76 C190.226665,28.6533328 189.946668,28.4933344 189.76,28.28 C189.573332,28.0666656 189.48,27.7200024 189.48,27.24 C189.48,26.439996 189.826663,25.9600008 190.52,25.8 C192.44001,25.3733312 194.466656,24.8133368 196.6,24.12 C198.733344,23.4266632 200.546659,22.7333368 202.04,22.04 C203.053338,21.4533304 203.719998,21.16 204.04,21.16 C204.573336,21.16 204.84,21.4799968 204.84,22.12 L204.76,24.52 L204.6,28.52 C204.6,29.053336 204.706666,29.32 204.92,29.32 C206.360007,27.3466568 207.986658,25.6400072 209.8,24.2 C211.613342,22.7599928 213.453324,22.04 215.32,22.04 C218.893351,22.04 220.68,23.37332 220.68,26.04 C220.68,27.4266736 220.146672,28.8799924 219.08,30.4 C218.013328,31.9200076 216.893339,32.68 215.72,32.68 C215.239998,32.68 214.70667,32.5600012 214.12,32.32 C213.53333,32.0799988 212.94667,31.8000016 212.36,31.48 C210.866659,30.7333296 209.853336,30.36 209.32,30.36 C207.773326,30.36 206.560004,30.9333276 205.68,32.08 C204.799996,33.2266724 204.36,35.2399856 204.36,38.12 L204.36,50.44 C204.36,51.5600056 204.666664,52.386664 205.28,52.92 C205.893336,53.453336 206.973326,53.9599976 208.52,54.44 C209.693339,54.7600016 210.28,55.2933296 210.28,56.04 C210.28,56.3600016 210.160001,56.6399988 209.92,56.88 C209.679999,57.1200012 209.373335,57.24 209,57.24 C207.239991,57.24 205.426676,57.1600008 203.56,57 C201.213322,56.8933328 199.613338,56.84 198.76,56.84 C197.906662,56.84 196.466677,56.8933328 194.44,57 C192.839992,57.1600008 191.213342,57.24 189.56,57.24 Z M227.16,71.6 C225.613326,71.6 224.17334,71.1284085 222.84,70.1852113 C221.50666,69.2420141 220.84,68.149302 220.84,66.9070423 C220.84,65.848821 221.119997,64.9056379 221.68,64.0774648 C222.240003,63.2492916 222.762251,62.4927619 223.882256,62.4927619 C224.468926,62.4927619 226.653331,62.4007426 227.16,62.4927619 C227.666669,62.5847811 231.058777,62.7688196 231.458779,62.4927619 C231.858781,62.2167042 232.306664,62.3061079 232.84,61.3859155 C233.000001,61.1098578 235.186662,57.7971928 236.2,55.8647887 C236.94667,54.4384905 237.32,53.1962494 237.32,52.1380282 C237.32,51.4938935 237.213334,50.9072796 237,50.378169 C236.786666,49.8490584 236.466669,49.1474222 236.04,48.2732394 L226.12,29.156338 C225.479997,27.9140783 224.86667,26.9708952 224.28,26.3267606 C223.69333,25.6826259 222.946671,25.2225366 222.04,24.9464789 C221.506664,24.7624404 221.133334,24.5669024 220.92,24.3598592 C220.706666,24.1528159 220.6,23.8422556 220.6,23.428169 C220.6,22.8760536 221.26666,22.6 222.6,22.6 C224.253342,22.6 226.03999,22.6460089 227.96,22.7380282 C229.346674,22.8300474 230.279998,22.8760563 230.76,22.8760563 C231.826672,22.8760563 233.266658,22.8300474 235.08,22.7380282 C237.00001,22.6460089 238.653326,22.6 240.04,22.6 C240.520002,22.6 240.959998,22.6805156 241.36,22.8415493 C241.760002,23.002583 241.96,23.2441298 241.96,23.5661972 C241.96,23.8882645 241.853334,24.1183092 241.64,24.256338 C241.426666,24.3943669 241.173335,24.5208914 240.88,24.6359155 C240.586665,24.7509395 240.360001,24.8314552 240.2,24.8774648 C239.559997,25.1075129 239.080002,25.4180732 238.76,25.8091549 C238.439998,26.2002367 238.28,26.7868505 238.28,27.5690141 C238.28,28.5352161 238.599997,29.6854393 239.24,31.0197183 L243.88,40.7507042 C243.933334,40.8427235 243.986666,40.8887324 244.04,40.8887324 C244.093334,40.8887324 244.146666,40.8427235 244.2,40.7507042 L248.04,30.6056338 C248.413335,29.731451 248.6,28.8112724 248.6,27.8450704 C248.6,27.1089165 248.333336,26.4762937 247.8,25.9471831 C247.266664,25.4180725 246.653337,25.0615033 245.96,24.8774648 C245.319997,24.6934263 244.866668,24.5208928 244.6,24.3598592 C244.333332,24.1988255 244.2,23.9342741 244.2,23.5661972 C244.2,23.2441298 244.399998,23.002583 244.8,22.8415493 C245.200002,22.6805156 245.639998,22.6 246.12,22.6 L250.04,22.8070423 L251.96,22.8760563 C252.226668,22.8760563 253.053326,22.8300474 254.44,22.7380282 L257.64,22.6 C258.97334,22.6 259.64,22.8760536 259.64,23.428169 C259.64,23.8422556 259.533334,24.1528159 259.32,24.3598592 C259.106666,24.5669024 258.733336,24.7624404 258.2,24.9464789 C256.173323,25.5906135 254.626672,26.9938859 253.56,29.156338 L241.4,54.415493 C240.866664,55.5657335 239.400012,58.5563139 237,63.3873239 L235.08,67.2521127 C234.386663,68.6784109 233.346674,69.7596207 231.96,70.4957746 C230.573326,71.2319286 228.973342,71.6 227.16,71.6 Z M253.64,57.24 C252.413327,57.24 251.8,56.840004 251.8,56.04 C251.8,55.7199984 251.919999,55.4800008 252.16,55.32 C252.400001,55.1599992 252.706665,55.0266672 253.08,54.92 C253.453335,54.8133328 253.746666,54.7066672 253.96,54.6 C255.29334,54.066664 256.399996,53.266672 257.28,52.2 C258.160004,51.133328 258.706666,49.8266744 258.92,48.28 C259.346669,45.2399848 259.866664,40.1067028 260.48,32.88 C261.093336,25.6532972 261.479999,21.1600088 261.64,19.4 L261.96,15.72 C262.013334,15.3999984 262.04,14.4933408 262.04,13 C262.04,11.133324 261.346674,9.8266704 259.96,9.08 C258.466659,8.279996 257.080006,7.7200016 255.8,7.4 C254.359993,7.0266648 253.64,6.440004 253.64,5.64 C253.64,4.7866624 254.333326,4.36 255.72,4.36 L261.64,4.52 C267.880031,4.6800008 271.213331,4.76 271.64,4.76 C272.013335,4.76 272.399998,4.9199984 272.8,5.24 C273.200002,5.5600016 273.453333,5.8799984 273.56,6.2 C274.466671,8.7066792 275.21333,10.6533264 275.8,12.04 L287.32,39.16 C287.426667,39.3733344 287.546666,39.48 287.68,39.48 C287.813334,39.48 287.906666,39.3733344 287.96,39.16 L298.44,13.96 C299.18667,9.95998 299.746665,7.4000056 300.12,6.28 C300.333334,5.5866632 300.786663,5.24 301.48,5.24 L305.08,5.24 C306.680008,5.1866664 308.093327,5.1066672 309.32,5 C310.546673,4.8933328 311.559996,4.8133336 312.36,4.76 C315.133347,4.493332 317.213326,4.36 318.6,4.36 C319.986674,4.36 320.68,4.7866624 320.68,5.64 C320.68,6.0666688 320.533335,6.3866656 320.24,6.6 C319.946665,6.8133344 319.480003,7.0266656 318.84,7.24 C318.466665,7.3466672 318.133335,7.4799992 317.84,7.64 C317.546665,7.8000008 317.320001,7.9066664 317.16,7.96 C315.453325,8.760004 314.26667,9.626662 313.6,10.56 C312.93333,11.493338 312.653333,12.9199904 312.76,14.84 C313.186669,24.5467152 313.77333,34.8932784 314.52,45.88 L314.76,49.16 C314.973334,51.560012 316.893315,53.2666616 320.52,54.28 C321.10667,54.4933344 321.546665,54.7066656 321.84,54.92 C322.133335,55.1333344 322.28,55.4799976 322.28,55.96 C322.28,56.3333352 322.133335,56.6266656 321.84,56.84 C321.546665,57.0533344 321.186669,57.16 320.76,57.16 L314.04,57 L307.8,56.84 C306.839995,56.84 304.920014,56.8933328 302.04,57 C299.906656,57.1600008 297.826677,57.24 295.8,57.24 C295.319998,57.24 294.920002,57.1333344 294.6,56.92 C294.279998,56.7066656 294.12,56.4133352 294.12,56.04 C294.12,55.1333288 294.706661,54.546668 295.88,54.28 C297.96001,53.7999976 299.37333,53.22667 300.12,52.56 C300.86667,51.89333 301.213334,50.7866744 301.16,49.24 C300.946666,45.7199824 300.733334,40.0667056 300.52,32.28 C300.466666,29.1866512 300.333334,25.2666904 300.12,20.52 C300.12,20.253332 300.040001,20.12 299.88,20.12 C299.719999,20.12 299.560001,20.3066648 299.4,20.68 L284.84,56.76 C284.573332,57.4533368 284.173336,57.8 283.64,57.8 C283.106664,57.8 282.680002,57.5066696 282.36,56.92 C281.186661,54.3066536 280.080005,51.9200108 279.04,49.76 C277.999995,47.5999892 277.080004,45.6400088 276.28,43.88 C271.53331,33.9599504 268.093344,26.3600264 265.96,21.08 C265.799999,20.7066648 265.586668,20.52 265.32,20.52 C264.893331,20.52 264.626667,20.9466624 264.52,21.8 C264.359999,24.5733472 264.28,27.8799808 264.28,31.72 L264.36,41 C264.413334,42.866676 264.44,45.4266504 264.44,48.68 C264.44,50.1733408 264.919995,51.3466624 265.88,52.2 C266.840005,53.0533376 268.386656,53.746664 270.52,54.28 C271.960007,54.6533352 272.68,55.2133296 272.68,55.96 C272.68,56.3333352 272.480002,56.6266656 272.08,56.84 C271.679998,57.0533344 271.240002,57.16 270.76,57.16 C269.159992,57.16 267.560008,57.1066672 265.96,57 L262.52,56.92 C260.973326,56.92 259.253343,56.9599996 257.36,57.04 C255.466657,57.1200004 254.22667,57.1866664 253.64,57.24 Z M330.84,58.12 C328.493322,58.12 326.506675,57.386674 324.88,55.92 C323.253325,54.453326 322.44,52.6800104 322.44,50.6 C322.44,48.7866576 323.013328,47.2400064 324.16,45.96 C325.306672,44.6799936 327.079988,43.506672 329.48,42.44 L336.36,39.4 C337.426672,38.9199976 338.093332,38.4933352 338.36,38.12 C338.626668,37.7466648 338.76,37.026672 338.76,35.96 L338.84,31.56 C338.946667,28.359984 337.880011,26.76 335.64,26.76 C334.999997,26.76 334.333337,26.9066652 333.64,27.2 C332.946663,27.4933348 332.440002,27.8266648 332.12,28.2 C331.853332,28.5200016 331.72,29.0266632 331.72,29.72 C331.72,30.0933352 331.746666,30.5066644 331.8,30.96 C331.853334,31.4133356 331.88,31.8266648 331.88,32.2 C331.88,32.733336 330.946676,33.4133292 329.08,34.24 C327.213324,35.0666708 325.640006,35.48 324.36,35.48 C323.933331,35.48 323.573335,35.3066684 323.28,34.96 C322.986665,34.6133316 322.84,34.173336 322.84,33.64 C322.84,32.7866624 323.13333,31.960004 323.72,31.16 C324.30667,30.359996 325.293326,29.4000056 326.68,28.28 C328.813344,26.5733248 331.226653,25.120006 333.92,23.92 C336.613347,22.719994 338.866658,22.12 340.68,22.12 C343.720015,22.12 346.133324,23.0933236 347.92,25.04 C349.706676,26.9866764 350.573334,29.5866504 350.52,32.84 L350.12,48.36 C350.066666,49.5866728 350.266664,50.6399956 350.72,51.52 C351.173336,52.4000044 351.746663,52.84 352.44,52.84 C353.400005,52.84 354.25333,52.4933368 355,51.8 C355.160001,51.6399992 355.319999,51.56 355.48,51.56 C355.746668,51.56 355.973332,51.6533324 356.16,51.84 C356.346668,52.0266676 356.44,52.253332 356.44,52.52 C356.44,53.1600032 355.906672,54.013328 354.84,55.08 C352.813323,57.1066768 350.493346,58.12 347.88,58.12 C346.226658,58.12 344.786673,57.7466704 343.56,57 C342.333327,56.2533296 341.186672,55.080008 340.12,53.48 L339.96,53.48 C338.199991,55.1866752 336.626674,56.3866632 335.24,57.08 C333.853326,57.7733368 332.386674,58.12 330.84,58.12 Z M335.8,52.6 C336.653338,52.6 337.346664,52.2533368 337.88,51.56 C338.200002,51.1333312 338.36,50.520004 338.36,49.72 L338.6,43.56 C338.6,42.8133296 338.333336,42.44 337.8,42.44 C337.586666,42.44 337.320002,42.5199992 337,42.68 C335.506659,43.480004 334.480003,44.2533296 333.92,45 C333.359997,45.7466704 333.08,46.9733248 333.08,48.68 C333.08,50.0666736 333.346664,51.0666636 333.88,51.68 C334.413336,52.2933364 335.05333,52.6 335.8,52.6 Z M368.12,58.12 C364.439982,58.12 361.680009,57.2266756 359.84,55.44 C357.999991,53.6533244 357.08,51.0800168 357.08,47.72 L357.08,29.32 C357.08,28.8399976 356.893335,28.4933344 356.52,28.28 C356.146665,28.0666656 355.506671,27.9333336 354.6,27.88 L353.4,27.88 C353.079998,27.88 352.773335,27.5600032 352.48,26.92 C352.186665,26.2799968 352.04,25.6666696 352.04,25.08 C352.04,24.7066648 352.199998,24.4666672 352.52,24.36 C355.346681,23.4533288 359.559972,20.600024 365.16,15.8 C365.266667,15.7466664 365.466665,15.6000012 365.76,15.36 C366.053335,15.1199988 366.319999,14.9466672 366.56,14.84 C366.800001,14.7333328 367.053332,14.68 367.32,14.68 C367.853336,14.68 368.213332,14.7999988 368.4,15.04 C368.586668,15.2800012 368.653334,15.7466632 368.6,16.44 L368.04,21.4 C367.879999,22.5733392 368.546659,23.16 370.04,23.16 L379.64,23.16 C379.746667,23.16 379.879999,23.3466648 380.04,23.72 C380.200001,24.0933352 380.28,24.413332 380.28,24.68 C380.28,25.5333376 380.173334,26.3199964 379.96,27.04 C379.746666,27.7600036 379.506668,28.12 379.24,28.12 L371.88,28.12 C370.759994,28.12 369.946669,28.2799984 369.44,28.6 C368.933331,28.9200016 368.68,29.4266632 368.68,30.12 L368.68,45.08 C368.68,47.5333456 369.133329,49.3733272 370.04,50.6 C370.946671,51.8266728 372.199992,52.44 373.8,52.44 C374.866672,52.44 375.719997,52.3600008 376.36,52.2 C377.000003,52.0399992 377.546664,51.8533344 378,51.64 C378.453336,51.4266656 378.786666,51.2666672 379,51.16 C379.213334,51.0533328 379.399999,51 379.56,51 C379.826668,51 380.039999,51.1733316 380.2,51.52 C380.360001,51.8666684 380.44,52.2799976 380.44,52.76 C380.44,53.1333352 379.81334,53.7599956 378.56,54.64 C377.30666,55.5200044 375.733343,56.3199964 373.84,57.04 C371.946657,57.7600036 370.04001,58.12 368.12,58.12 Z M392.96,58.12 C390.133319,58.12 387.560012,57.3466744 385.24,55.8 C382.919988,54.2533256 381.09334,52.14668 379.76,49.48 C378.42666,46.81332 377.76,43.8533496 377.76,40.6 C377.76,37.2399832 378.559992,34.1466808 380.16,31.32 C381.760008,28.4933192 383.946653,26.2533416 386.72,24.6 C389.493347,22.9466584 392.533317,22.12 395.84,22.12 C398.026678,22.12 400.106657,22.519996 402.08,23.32 C404.053343,24.120004 405.733326,25.2666592 407.12,26.76 C407.546669,27.293336 407.76,27.7733312 407.76,28.2 C407.76,28.6800024 407.253338,29.4399948 406.24,30.48 C405.226662,31.5200052 404.42667,32.04 403.84,32.04 C403.359998,32.04 402.920002,31.9200012 402.52,31.68 C402.119998,31.4399988 401.600003,31.053336 400.96,30.52 C399.519993,29.2933272 398.09334,28.3200036 396.68,27.6 C395.26666,26.8799964 394.026672,26.52 392.96,26.52 C391.03999,26.52 389.640004,27.3066588 388.76,28.88 C387.879996,30.4533412 387.44,33.0799816 387.44,36.76 C387.44,40.7066864 388.293325,43.7733224 390,45.96 C391.706675,48.1466776 394.18665,49.24 397.44,49.24 C398.933341,49.24 400.279994,49.0000024 401.48,48.52 C402.680006,48.0399976 403.973326,47.266672 405.36,46.2 C405.466667,46.0933328 405.666665,45.9333344 405.96,45.72 C406.253335,45.5066656 406.533332,45.4 406.8,45.4 C407.440003,45.4 407.76,45.8266624 407.76,46.68 C407.76,47.3733368 407.600002,48.0933296 407.28,48.84 C406.799998,50.0666728 405.85334,51.3999928 404.44,52.84 C403.02666,54.2800072 401.306677,55.5199948 399.28,56.56 C397.253323,57.6000052 395.146678,58.12 392.96,58.12 Z M405.12,57.24 C404.586664,57.24 404.186668,57.1333344 403.92,56.92 C403.653332,56.7066656 403.52,56.4133352 403.52,56.04 C403.52,55.3466632 404.133327,54.7866688 405.36,54.36 C405.520001,54.3066664 405.906664,54.1733344 406.52,53.96 C407.133336,53.7466656 407.586665,53.440002 407.88,53.04 C408.173335,52.639998 408.32,52.0666704 408.32,51.32 L408.32,13.32 C408.32,11.6666584 408.120002,10.3600048 407.72,9.4 C407.319998,8.4399952 406.506673,7.826668 405.28,7.56 C404.69333,7.4533328 404.4,7.0266704 404.4,6.28 C404.4,5.5866632 404.666664,5.1866672 405.2,5.08 C407.440011,4.6533312 411.22664,3.4533432 416.56,1.48 L418.24,0.84 C418.720002,0.6799992 419.093332,0.6 419.36,0.6 C419.94667,0.6 420.24,0.9466632 420.24,1.64 L420.08,3.48 L419.84,5.96 L419.84,25.48 C419.84,26.7066728 419.973332,27.4266656 420.24,27.64 C422.213343,25.9333248 424.039992,24.5866716 425.72,23.6 C427.400008,22.6133284 429.439988,22.12 431.84,22.12 C434.826682,22.12 437.27999,23.1466564 439.2,25.2 C441.12001,27.2533436 442.08,30.0399824 442.08,33.56 L442.08,51.16 C442.08,52.1733384 442.293331,52.8666648 442.72,53.24 C443.146669,53.6133352 443.866662,53.9866648 444.88,54.36 C445.46667,54.5733344 445.893332,54.7999988 446.16,55.04 C446.426668,55.2800012 446.56,55.6133312 446.56,56.04 C446.56,56.3600016 446.413335,56.6399988 446.12,56.88 C445.826665,57.1200012 445.38667,57.24 444.8,57.24 C442.986658,57.24 441.440006,57.1600008 440.16,57 C438.559992,56.8933328 437.226672,56.84 436.16,56.84 C434.986661,56.84 433.706674,56.8933328 432.32,57 C431.306662,57.1600008 429.920009,57.24 428.16,57.24 C426.82666,57.24 426.16,56.8133376 426.16,55.96 C426.16,55.2133296 426.693328,54.6800016 427.76,54.36 C428.613338,54.093332 429.279998,53.7333356 429.76,53.28 C430.240002,52.8266644 430.48,52.066672 430.48,51 L430.48,35.32 C430.48,33.6666584 430.026671,32.2533392 429.12,31.08 C428.213329,29.9066608 427.120006,29.32 425.84,29.32 C424.026658,29.32 422.320008,29.9066608 420.72,31.08 C420.399998,31.2933344 420.186667,31.5599984 420.08,31.88 C419.973333,32.2000016 419.92,32.6799968 419.92,33.32 L419.92,51.16 C419.92,52.1200048 420.133331,52.799998 420.56,53.2 C420.986669,53.600002 421.626662,53.9599984 422.48,54.28 C423.546672,54.7066688 424.08,55.2666632 424.08,55.96 C424.08,56.3333352 423.960001,56.6399988 423.72,56.88 C423.479999,57.1200012 423.146669,57.24 422.72,57.24 C421.119992,57.24 419.546674,57.1600008 418,57 C416.07999,56.8933328 414.693338,56.84 413.84,56.84 C412.933329,56.84 411.573342,56.8933328 409.76,57 C408.319993,57.1600008 406.773342,57.24 405.12,57.24 Z" id="MemoryMatch"></path>
            <rect id="Rectangle-2" x="0" y="62" width="219" height="10" rx="5"></rect>
            <rect id="Rectangle-2" x="239" y="62" width="209" height="10" rx="5"></rect>
        </g>
    </g>
</svg>