<?xml version="1.0" encoding="UTF-8"?>
<svg width="349px" height="80px" viewBox="0 0 349 80" version="1.1" xmlns="http://www.w3.org/2000/svg" xmlns:xlink="http://www.w3.org/1999/xlink">
    <!-- Generator: Sketch 51.3 (57544) - http://www.bohemiancoding.com/sketch -->
    <title>Group 2</title>
    <desc>Created with Sketch.</desc>
    <defs></defs>
    <g id="Page-1" stroke="none" stroke-width="1" fill="none" fill-rule="evenodd">
        <g id="Group-2" fill="#000000">
            <rect id="Rectangle-2" x="0" y="60" width="82" height="10" rx="5"></rect>
            <rect id="Rectangle-2" x="123" y="60" width="226" height="10" rx="5"></rect>
            <path d="M3.44,56.64 C3.1199984,56.64 2.8000016,56.5200012 2.48,56.28 C2.1599984,56.0399988 2,55.7600016 2,55.44 C2,54.5333288 2.5066616,53.946668 3.52,53.68 C5.386676,53.1999976 6.65333,52.6400032 7.32,52 C7.98667,51.3599968 8.32,50.240008 8.32,48.64 L8.32,12.32 C8.32,10.6133248 8.0000032,9.4133368 7.36,8.72 C6.7199968,8.0266632 5.4400096,7.4400024 3.52,6.96 C2.5066616,6.693332 2,6.1066712 2,5.2 C2,4.8799984 2.1599984,4.6000012 2.48,4.36 C2.8000016,4.1199988 3.1199984,4 3.44,4 C5.3600096,4 7.3599896,4.0799992 9.44,4.24 C12.10668,4.3466672 13.9466616,4.4 14.96,4.4 C15.9733384,4.4 17.9733184,4.3466672 20.96,4.24 C24.0533488,4.1333328 26.1866608,4.08 27.36,4.08 C28.2133376,4.08 28.64,4.479996 28.64,5.28 C28.64,5.7600024 28.5200012,6.1199988 28.28,6.36 C28.0399988,6.6000012 27.653336,6.7999992 27.12,6.96 C24.9333224,7.6000032 23.5200032,8.2666632 22.88,8.96 C22.2399968,9.6533368 21.92,10.799992 21.92,12.4 L21.92,26.56 C21.92,27.360004 22.3466624,27.76 23.2,27.76 L42.48,27.76 C43.2266704,27.76 43.6,27.360004 43.6,26.56 L43.6,12.4 C43.6,10.799992 43.2800032,9.6533368 42.64,8.96 C41.9999968,8.2666632 40.5866776,7.6000032 38.4,6.96 C37.866664,6.7999992 37.4800012,6.6000012 37.24,6.36 C36.9999988,6.1199988 36.88,5.7600024 36.88,5.28 C36.88,4.479996 37.3066624,4.08 38.16,4.08 C39.3333392,4.08 41.4666512,4.1333328 44.56,4.24 C47.5466816,4.3466672 49.5466616,4.4 50.56,4.4 C51.5733384,4.4 53.41332,4.3466672 56.08,4.24 C58.1600104,4.0799992 60.1599904,4 62.08,4 C62.4533352,4 62.7866652,4.1199988 63.08,4.36 C63.3733348,4.6000012 63.52,4.8799984 63.52,5.2 C63.52,6.1066712 63.0133384,6.693332 62,6.96 C60.0799904,7.4400024 58.8000032,8.0266632 58.16,8.72 C57.5199968,9.4133368 57.2,10.6133248 57.2,12.32 L57.2,48.64 C57.2,50.240008 57.53333,51.3599968 58.2,52 C58.86667,52.6400032 60.133324,53.1999976 62,53.68 C63.0133384,53.946668 63.52,54.5333288 63.52,55.44 C63.52,55.7600016 63.3733348,56.0399988 63.08,56.28 C62.7866652,56.5200012 62.4533352,56.64 62.08,56.64 C61.1199952,56.64 59.2533472,56.5866672 56.48,56.48 C54.346656,56.3199992 52.3733424,56.24 50.56,56.24 C49.5466616,56.24 47.5466816,56.2933328 44.56,56.4 C41.4666512,56.5066672 39.3333392,56.56 38.16,56.56 C37.3066624,56.56 36.88,56.160004 36.88,55.36 C36.88,54.8799976 36.9999988,54.5200012 37.24,54.28 C37.4800012,54.0399988 37.866664,53.8400008 38.4,53.68 C40.4800104,53.0933304 41.8666632,52.46667 42.56,51.8 C43.2533368,51.13333 43.6,50.0533408 43.6,48.56 L43.6,33.68 C43.6,32.7733288 43.2266704,32.32 42.48,32.32 L23.2,32.32 C22.3466624,32.32 21.92,32.7733288 21.92,33.68 L21.92,48.56 C21.92,50.0533408 22.2666632,51.13333 22.96,51.8 C23.6533368,52.46667 25.0399896,53.0933304 27.12,53.68 C27.653336,53.8400008 28.0399988,54.0399988 28.28,54.28 C28.5200012,54.5200012 28.64,54.8799976 28.64,55.36 C28.64,56.160004 28.2133376,56.56 27.36,56.56 C26.1866608,56.56 24.0533488,56.5066672 20.96,56.4 C17.9733184,56.2933328 15.9733384,56.24 14.96,56.24 C13.1999912,56.24 11.2266776,56.3199992 9.04,56.48 C6.2666528,56.5866672 4.4000048,56.64 3.44,56.64 Z M64.6,56.64 C64.2799984,56.64 63.986668,56.5333344 63.72,56.32 C63.453332,56.1066656 63.32,55.8400016 63.32,55.52 C63.32,54.719996 63.7733288,54.186668 64.68,53.92 C66.1733408,53.5466648 67.186664,53.160002 67.72,52.76 C68.253336,52.359998 68.52,51.760004 68.52,50.96 L68.52,33.68 C68.52,31.8666576 68.253336,30.6000036 67.72,29.88 C67.186664,29.1599964 66.3066728,28.7200008 65.08,28.56 C64.7599984,28.5066664 64.5200008,28.3333348 64.36,28.04 C64.1999992,27.7466652 64.12,27.4133352 64.12,27.04 C64.12,26.6666648 64.2133324,26.346668 64.4,26.08 C64.5866676,25.813332 64.813332,25.6533336 65.08,25.6 C67.5333456,25.1199976 69.7199904,24.5066704 71.64,23.76 C73.5600096,23.0133296 75.7733208,22.0800056 78.28,20.96 C79.2400048,20.5333312 79.8266656,20.32 80.04,20.32 C80.4133352,20.32 80.6933324,20.4266656 80.88,20.64 C81.0666676,20.8533344 81.16,21.1199984 81.16,21.44 L80.76,24.96 C80.3333312,28.5866848 80.12,31.3866568 80.12,33.36 L80.12,50.88 C80.12,51.5733368 80.386664,52.1333312 80.92,52.56 C81.453336,52.9866688 82.4666592,53.4399976 83.96,53.92 C84.4400024,54.0800008 84.7999988,54.2666656 85.04,54.48 C85.2800012,54.6933344 85.4,55.0133312 85.4,55.44 C85.4,56.1866704 85.000004,56.56 84.2,56.56 C83.1866616,56.56 81.4533456,56.5066672 79,56.4 C76.6533216,56.2933328 75.0533376,56.24 74.2,56.24 C73.2933288,56.24 71.773344,56.2933328 69.64,56.4 C67.9333248,56.5600008 66.2533416,56.64 64.6,56.64 Z M68.88,22.36 C67.0666576,22.36 65.49334,21.69334 64.16,20.36 C62.82666,19.02666 62.16,17.4533424 62.16,15.64 C62.16,13.6666568 62.8133268,12.01334 64.12,10.68 C65.4266732,9.34666 67.013324,8.68 68.88,8.68 C70.8533432,8.68 72.50666,9.34666 73.84,10.68 C75.17334,12.01334 75.84,13.6666568 75.84,15.64 C75.84,17.506676 75.17334,19.0933268 73.84,20.4 C72.50666,21.7066732 70.8533432,22.36 68.88,22.36 Z M122.44,23.28 C122.866669,23.28 123.199999,23.4533316 123.44,23.8 C123.680001,24.1466684 123.8,24.6133304 123.8,25.2 C123.8,25.6266688 123.693334,26.1599968 123.48,26.8 C123.266666,27.4400032 123.000002,27.9733312 122.68,28.4 C122.359998,28.7733352 122.013335,28.96 121.64,28.96 L119.48,28.96 C118.093326,28.96 117.133336,29.1733312 116.6,29.6 C116.546666,29.6533336 116.466667,29.7066664 116.36,29.76 C116.253333,29.8133336 116.2,30.1466636 116.2,30.76 C116.2,31.1688909 116.2,32.0355576 116.2,33.36 C116.2,36.1333472 115.466674,38.7066548 114,41.08 C112.533326,43.4533452 110.546679,45.3466596 108.04,46.76 C105.533321,48.1733404 102.840014,48.88 99.96,48.88 C98.1999912,48.88 96.3333432,48.5333368 94.36,47.84 C93.5066624,48.5333368 93.08,49.146664 93.08,49.68 C93.08,50.480004 93.8666588,51.0666648 95.44,51.44 C97.0133412,51.8133352 100.09331,52.1866648 104.68,52.56 C110.653363,53.0400024 114.959987,53.9333268 117.6,55.24 C120.240013,56.5466732 121.56,58.4533208 121.56,60.96 C121.56,63.893348 120.480011,66.7999856 118.32,69.68 C116.159989,72.5600144 113.386684,74.9199908 110,76.76 C106.613316,78.6000092 103.21335,79.52 99.8,79.52 C94.46664,79.52 90.3066816,78.720008 87.32,77.12 C84.3333184,75.519992 82.84,73.3066808 82.84,70.48 C82.84,68.7199912 83.039998,67.373338 83.44,66.44 C83.840002,65.506662 84.7333264,64.5333384 86.12,63.52 L90.44,60.32 C86.8133152,58.6133248 85,56.1066832 85,52.8 C85,51.6266608 85.7466592,50.5600048 87.24,49.6 C89.0533424,48.4266608 90.4666616,47.3333384 91.48,46.32 C89.4533232,45.0933272 87.840006,43.5333428 86.64,41.64 C85.439994,39.7466572 84.84,37.6533448 84.84,35.36 C84.84,32.69332 85.6133256,30.3066772 87.16,28.2 C88.7066744,26.0933228 90.7599872,24.440006 93.32,23.24 C95.8800128,22.039994 98.5999856,21.44 101.48,21.44 C102.386671,21.44 103.373328,21.5199992 104.44,21.68 C105.506672,21.8400008 106.573328,22.0266656 107.64,22.24 L111.48,22.96 C113.720011,23.3333352 115.906656,23.52 118.04,23.52 C118.78667,23.52 119.693328,23.4666672 120.76,23.36 L122.44,23.28 Z M102.92,45.2 C104.520008,45.2 105.786662,44.2800092 106.72,42.44 C107.653338,40.5999908 108.12,38.1066824 108.12,34.96 C108.12,31.9199848 107.626672,29.4933424 106.64,27.68 C105.653328,25.8666576 104.333342,24.96 102.68,24.96 C101.186659,24.96 99.9333384,25.8666576 98.92,27.68 C97.9066616,29.4933424 97.4,31.7866528 97.4,34.56 C97.4,37.6000152 97.933328,40.1333232 99,42.16 C100.066672,44.1866768 101.373326,45.2 102.92,45.2 Z M111.84,66.8 C111.84,65.999996 111.560003,65.3600024 111,64.88 C110.439997,64.3999976 109.45334,64.0000016 108.04,63.68 C106.62666,63.3599984 104.533347,63.0400016 101.76,62.72 C99.3066544,62.453332 97.280008,62.1066688 95.68,61.68 C92.7999856,63.4400088 91.36,65.4666552 91.36,67.76 C91.36,69.9466776 92.2666576,71.7466596 94.08,73.16 C95.8933424,74.5733404 98.2133192,75.28 101.04,75.28 C104.826686,75.28 107.439993,74.5600072 108.88,73.12 C109.786671,72.2133288 110.506664,71.2000056 111.04,70.08 C111.573336,68.9599944 111.84,67.866672 111.84,66.8 Z M121.2,56.64 C120.666664,56.64 120.266668,56.5333344 120,56.32 C119.733332,56.1066656 119.6,55.8133352 119.6,55.44 C119.6,54.7466632 120.213327,54.1866688 121.44,53.76 C121.600001,53.7066664 121.986664,53.5733344 122.6,53.36 C123.213336,53.1466656 123.666665,52.840002 123.96,52.44 C124.253335,52.039998 124.4,51.4666704 124.4,50.72 L124.4,12.72 C124.4,11.0666584 124.200002,9.7600048 123.8,8.8 C123.399998,7.8399952 122.586673,7.226668 121.36,6.96 C120.77333,6.8533328 120.48,6.4266704 120.48,5.68 C120.48,4.9866632 120.746664,4.5866672 121.28,4.48 C123.520011,4.0533312 127.30664,2.8533432 132.64,0.88 L134.32,0.24 C134.800002,0.0799992 135.173332,2.84217094e-14 135.44,0 C136.02667,2.84217094e-14 136.32,0.3466632 136.32,1.04 L136.16,2.88 L135.92,5.36 L135.92,24.88 C135.92,26.1066728 136.053332,26.8266656 136.32,27.04 C138.293343,25.3333248 140.119992,23.9866716 141.8,23 C143.480008,22.0133284 145.519988,21.52 147.92,21.52 C150.906682,21.52 153.35999,22.5466564 155.28,24.6 C157.20001,26.6533436 158.16,29.4399824 158.16,32.96 L158.16,50.56 C158.16,51.5733384 158.373331,52.2666648 158.8,52.64 C159.226669,53.0133352 159.946662,53.3866648 160.96,53.76 C161.54667,53.9733344 161.973332,54.1999988 162.24,54.44 C162.506668,54.6800012 162.64,55.0133312 162.64,55.44 C162.64,55.7600016 162.493335,56.0399988 162.2,56.28 C161.906665,56.5200012 161.46667,56.64 160.88,56.64 C159.066658,56.64 157.520006,56.5600008 156.24,56.4 C154.639992,56.2933328 153.306672,56.24 152.24,56.24 C151.066661,56.24 149.786674,56.2933328 148.4,56.4 C147.386662,56.5600008 146.000009,56.64 144.24,56.64 C142.90666,56.64 142.24,56.2133376 142.24,55.36 C142.24,54.6133296 142.773328,54.0800016 143.84,53.76 C144.693338,53.493332 145.359998,53.1333356 145.84,52.68 C146.320002,52.2266644 146.56,51.466672 146.56,50.4 L146.56,34.72 C146.56,33.0666584 146.106671,31.6533392 145.2,30.48 C144.293329,29.3066608 143.200006,28.72 141.92,28.72 C140.106658,28.72 138.400008,29.3066608 136.8,30.48 C136.479998,30.6933344 136.266667,30.9599984 136.16,31.28 C136.053333,31.6000016 136,32.0799968 136,32.72 L136,50.56 C136,51.5200048 136.213331,52.199998 136.64,52.6 C137.066669,53.000002 137.706662,53.3599984 138.56,53.68 C139.626672,54.1066688 140.16,54.6666632 140.16,55.36 C140.16,55.7333352 140.040001,56.0399988 139.8,56.28 C139.559999,56.5200012 139.226669,56.64 138.8,56.64 C137.199992,56.64 135.626674,56.5600008 134.08,56.4 C132.15999,56.2933328 130.773338,56.24 129.92,56.24 C129.013329,56.24 127.653342,56.2933328 125.84,56.4 C124.399993,56.5600008 122.853342,56.64 121.2,56.64 Z M177.6,57.52 C172.639975,57.52 168.346685,56.4266776 164.72,54.24 C163.813329,53.706664 163.200002,53.040004 162.88,52.24 C161.919995,49.7333208 161.44,46.48002 161.44,42.48 C161.44,41.3599944 161.466666,40.5066696 161.52,39.92 C161.52,39.2266632 162.026662,38.88 163.04,38.88 C163.573336,38.88 163.946666,38.946666 164.16,39.08 C164.373334,39.213334 164.586666,39.4933312 164.8,39.92 C166.080006,44.0800208 167.919988,47.4133208 170.32,49.92 C172.720012,52.4266792 175.493318,53.68 178.64,53.68 C180.933345,53.68 182.693327,52.9200076 183.92,51.4 C185.146673,49.8799924 185.76,48.186676 185.76,46.32 C185.76,44.0799888 185.09334,42.2666736 183.76,40.88 C182.42666,39.4933264 180.05335,37.866676 176.64,36 C173.653318,34.399992 171.253342,32.93334 169.44,31.6 C167.626658,30.26666 166.09334,28.5466772 164.84,26.44 C163.58666,24.3333228 162.96,21.813348 162.96,18.88 C162.96,15.7866512 163.813325,13.0533452 165.52,10.68 C167.226675,8.3066548 169.546652,6.4800064 172.48,5.2 C175.413348,3.9199936 178.613316,3.28 182.08,3.28 C184.00001,3.28 185.933324,3.479998 187.88,3.88 C189.826676,4.280002 191.439994,4.746664 192.72,5.28 C193.413337,5.546668 193.893332,5.8399984 194.16,6.16 C194.426668,6.4800016 194.693332,7.0666624 194.96,7.92 C195.493336,10.053344 195.76,13.2799784 195.76,17.6 C195.76,17.866668 195.626668,18.1066656 195.36,18.32 C195.093332,18.5333344 194.720002,18.64 194.24,18.64 C193.759998,18.64 193.333335,18.5200012 192.96,18.28 C192.586665,18.0399988 192.346667,17.7333352 192.24,17.36 C191.386662,14.1066504 190.053342,11.6266752 188.24,9.92 C186.426658,8.2133248 184.213346,7.36 181.6,7.36 C176.85331,7.36 174.48,9.626644 174.48,14.16 C174.48,15.8133416 175.319992,17.373326 177,18.84 C178.680008,20.306674 181.413314,22.1599888 185.2,24.4 C189.733356,27.1200136 192.839992,29.7199876 194.52,32.2 C196.200008,34.6800124 197.04,37.7066488 197.04,41.28 C197.04,46.7733608 195.320017,50.85332 191.88,53.52 C188.439983,56.18668 183.68003,57.52 177.6,57.52 Z M212.92,57.52 C210.093319,57.52 207.520012,56.7466744 205.2,55.2 C202.879988,53.6533256 201.05334,51.54668 199.72,48.88 C198.38666,46.21332 197.72,43.2533496 197.72,40 C197.72,36.6399832 198.519992,33.5466808 200.12,30.72 C201.720008,27.8933192 203.906653,25.6533416 206.68,24 C209.453347,22.3466584 212.493317,21.52 215.8,21.52 C217.986678,21.52 220.066657,21.919996 222.04,22.72 C224.013343,23.520004 225.693326,24.6666592 227.08,26.16 C227.506669,26.693336 227.72,27.1733312 227.72,27.6 C227.72,28.0800024 227.213338,28.8399948 226.2,29.88 C225.186662,30.9200052 224.38667,31.44 223.8,31.44 C223.319998,31.44 222.880002,31.3200012 222.48,31.08 C222.079998,30.8399988 221.560003,30.453336 220.92,29.92 C219.479993,28.6933272 218.05334,27.7200036 216.64,27 C215.22666,26.2799964 213.986672,25.92 212.92,25.92 C210.99999,25.92 209.600004,26.7066588 208.72,28.28 C207.839996,29.8533412 207.4,32.4799816 207.4,36.16 C207.4,40.1066864 208.253325,43.1733224 209.96,45.36 C211.666675,47.5466776 214.14665,48.64 217.4,48.64 C218.893341,48.64 220.239994,48.4000024 221.44,47.92 C222.640006,47.4399976 223.933326,46.666672 225.32,45.6 C225.426667,45.4933328 225.626665,45.3333344 225.92,45.12 C226.213335,44.9066656 226.493332,44.8 226.76,44.8 C227.400003,44.8 227.72,45.2266624 227.72,46.08 C227.72,46.7733368 227.560002,47.4933296 227.24,48.24 C226.759998,49.4666728 225.81334,50.7999928 224.4,52.24 C222.98666,53.6800072 221.266677,54.9199948 219.24,55.96 C217.213323,57.0000052 215.106678,57.52 212.92,57.52 Z M246.04,57.52 C242.839984,57.52 239.90668,56.8000072 237.24,55.36 C234.57332,53.9199928 232.480008,51.9066796 230.96,49.32 C229.439992,46.7333204 228.68,43.840016 228.68,40.64 C228.68,37.173316 229.533325,33.973348 231.24,31.04 C232.946675,28.106652 235.253319,25.773342 238.16,24.04 C241.066681,22.306658 244.279982,21.44 247.8,21.44 C251.05335,21.44 254.05332,22.2133256 256.8,23.76 C259.54668,25.3066744 261.719992,27.3733204 263.32,29.96 C264.920008,32.5466796 265.72,35.3333184 265.72,38.32 C265.72,41.8933512 264.973341,45.1333188 263.48,48.04 C261.986659,50.9466812 259.760015,53.2533248 256.8,54.96 C253.839985,56.6666752 250.253354,57.52 246.04,57.52 Z M247.56,53.76 C249.426676,53.76 250.839995,52.9866744 251.8,51.44 C252.973339,49.4666568 253.56,45.7333608 253.56,40.24 C253.56,35.8133112 252.920006,32.200014 251.64,29.4 C250.359994,26.599986 248.68001,25.2 246.6,25.2 C245.213326,25.2 244.066671,25.6533288 243.16,26.56 C242.253329,27.4666712 241.626668,28.8933236 241.28,30.84 C240.933332,32.7866764 240.76,35.3866504 240.76,38.64 C240.76,41.2000128 241.05333,43.6399884 241.64,45.96 C242.22667,48.2800116 243.039995,50.1599928 244.08,51.6 C245.120005,53.0400072 246.279994,53.76 247.56,53.76 Z M263.6,56.64 C263.173331,56.64 262.800002,56.5200012 262.48,56.28 C262.159998,56.0399988 262,55.7600016 262,55.44 C262,54.6933296 262.613327,54.1333352 263.84,53.76 C265.013339,53.3866648 265.799998,53.000002 266.2,52.6 C266.600002,52.199998 266.8,51.5733376 266.8,50.72 L266.8,32.08 C266.8,30.9599944 266.653335,30.0933364 266.36,29.48 C266.066665,28.8666636 265.493338,28.426668 264.64,28.16 C264.266665,28.0533328 263.986668,27.8933344 263.8,27.68 C263.613332,27.4666656 263.52,27.1200024 263.52,26.64 C263.52,25.839996 263.866663,25.3600008 264.56,25.2 C266.48001,24.7733312 268.506656,24.2133368 270.64,23.52 C272.773344,22.8266632 274.586659,22.1333368 276.08,21.44 C277.093338,20.8533304 277.759998,20.56 278.08,20.56 C278.613336,20.56 278.88,20.8799968 278.88,21.52 L278.8,23.92 L278.64,27.92 C278.64,28.453336 278.746666,28.72 278.96,28.72 C280.400007,26.7466568 282.026658,25.0400072 283.84,23.6 C285.653342,22.1599928 287.493324,21.44 289.36,21.44 C292.933351,21.44 294.72,22.77332 294.72,25.44 C294.72,26.8266736 294.186672,28.2799924 293.12,29.8 C292.053328,31.3200076 290.933339,32.08 289.76,32.08 C289.279998,32.08 288.74667,31.9600012 288.16,31.72 C287.57333,31.4799988 286.98667,31.2000016 286.4,30.88 C284.906659,30.1333296 283.893336,29.76 283.36,29.76 C281.813326,29.76 280.600004,30.3333276 279.72,31.48 C278.839996,32.6266724 278.4,34.6399856 278.4,37.52 L278.4,49.84 C278.4,50.9600056 278.706664,51.786664 279.32,52.32 C279.933336,52.853336 281.013326,53.3599976 282.56,53.84 C283.733339,54.1600016 284.32,54.6933296 284.32,55.44 C284.32,55.7600016 284.200001,56.0399988 283.96,56.28 C283.719999,56.5200012 283.413335,56.64 283.04,56.64 C281.279991,56.64 279.466676,56.5600008 277.6,56.4 C275.253322,56.2933328 273.653338,56.24 272.8,56.24 C271.946662,56.24 270.506677,56.2933328 268.48,56.4 C266.879992,56.5600008 265.253342,56.64 263.6,56.64 Z M306.64,57.52 C303.813319,57.52 301.240012,56.7466744 298.92,55.2 C296.599988,53.6533256 294.77334,51.54668 293.44,48.88 C292.10666,46.21332 291.44,43.2533496 291.44,40 C291.44,36.6399832 292.239992,33.5466808 293.84,30.72 C295.440008,27.8933192 297.61332,25.6533416 300.36,24 C303.10668,22.3466584 306.10665,21.52 309.36,21.52 C311.600011,21.52 313.666657,22.0266616 315.56,23.04 C317.453343,24.0533384 318.959994,25.4133248 320.08,27.12 C321.200006,28.8266752 321.76,30.7199896 321.76,32.8 C321.76,33.866672 321.560002,34.6533308 321.16,35.16 C320.759998,35.6666692 320.133338,35.92 319.28,35.92 L303.44,35.92 C302.69333,35.92 302.146668,36.1333312 301.8,36.56 C301.453332,36.9866688 301.28,37.7066616 301.28,38.72 C301.28,41.653348 302.213324,44.1066568 304.08,46.08 C305.946676,48.0533432 308.346652,49.04 311.28,49.04 C312.720007,49.04 314.079994,48.7600028 315.36,48.2 C316.640006,47.6399972 318.026659,46.826672 319.52,45.76 C320.000002,45.3866648 320.373332,45.2 320.64,45.2 C321.22667,45.2 321.52,45.5466632 321.52,46.24 C321.52,46.7200024 321.360002,47.4399952 321.04,48.4 C320.239996,50.800012 318.54668,52.9199908 315.96,54.76 C313.37332,56.6000092 310.266685,57.52 306.64,57.52 Z M307.68,32.4 C308.960006,32.4 309.906664,32.3733336 310.52,32.32 C311.133336,32.2666664 311.679998,32.1600008 312.16,32 C312.373334,31.9466664 312.573332,31.6800024 312.76,31.2 C312.946668,30.7199976 313.04,30.1866696 313.04,29.6 C313.04,28.2133264 312.600004,27.0800044 311.72,26.2 C310.839996,25.3199956 309.706674,24.88 308.32,24.88 C306.719992,24.88 305.280006,25.54666 304,26.88 C302.719994,28.21334 302.133333,29.6533256 302.24,31.2 C302.24,31.5733352 302.346666,31.8666656 302.56,32.08 C302.773334,32.2933344 303.066665,32.4 303.44,32.4 L307.68,32.4 Z M333.2,57.52 C329.253314,57.52 325.94668,56.6400088 323.28,54.88 C322.746664,54.079996 322.360001,52.7866756 322.12,51 C321.879999,49.2133244 321.813333,47.253344 321.92,45.12 C321.92,44.7999984 322.079998,44.5466676 322.4,44.36 C322.720002,44.1733324 323.119998,44.08 323.6,44.08 C324.026669,44.08 324.413332,44.2266652 324.76,44.52 C325.106668,44.8133348 325.359999,45.1199984 325.52,45.44 C326.800006,48.0533464 328.06666,50.0799928 329.32,51.52 C330.57334,52.9600072 332.106658,53.68 333.92,53.68 C335.200006,53.68 336.199996,53.280004 336.92,52.48 C337.640004,51.679996 338,50.7200056 338,49.6 C338,48.3733272 337.506672,47.3066712 336.52,46.4 C335.533328,45.4933288 334.240008,44.640004 332.64,43.84 C329.813319,42.4533264 327.533342,40.8666756 325.8,39.08 C324.066658,37.2933244 323.2,34.9600144 323.2,32.08 C323.2,28.9333176 324.479987,26.3733432 327.04,24.4 C329.600013,22.4266568 332.746648,21.44 336.48,21.44 C338.133342,21.44 339.759992,21.6266648 341.36,22 C342.960008,22.3733352 344.106663,22.7733312 344.8,23.2 C345.226669,23.733336 345.559999,24.7466592 345.8,26.24 C346.040001,27.7333408 346.16,29.4666568 346.16,31.44 C346.16,31.706668 346.013335,31.9199992 345.72,32.08 C345.426665,32.2400008 345.040002,32.32 344.56,32.32 C344.186665,32.32 343.786669,32.1733348 343.36,31.88 C342.933331,31.5866652 342.666667,31.306668 342.56,31.04 C341.866663,28.9599896 340.973339,27.3733388 339.88,26.28 C338.786661,25.1866612 337.600006,24.64 336.32,24.64 C335.093327,24.64 334.026671,25.0266628 333.12,25.8 C332.213329,26.5733372 331.76,27.5466608 331.76,28.72 C331.76,29.6800048 332.239995,30.5866624 333.2,31.44 C334.160005,32.2933376 335.493325,33.1733288 337.2,34.08 C340.826685,36.0000096 343.359993,37.8133248 344.8,39.52 C346.240007,41.2266752 346.96,43.4666528 346.96,46.24 C346.96,49.8666848 345.800012,52.6533236 343.48,54.6 C341.159988,56.5466764 337.733356,57.52 333.2,57.52 Z" id="HighScores"></path>
        </g>
    </g>
</svg>